<?xml version="1.0" encoding="utf-8"?>
<!-- Generator: Adobe Illustrator 27.5.0, SVG Export Plug-In . SVG Version: 6.00 Build 0)  -->
<svg version="1.1" xmlns="http://www.w3.org/2000/svg" xmlns:xlink="http://www.w3.org/1999/xlink" x="0px" y="0px"
	 viewBox="0 0 1920 1080" style="enable-background:new 0 0 1920 1080;" xml:space="preserve">
<g id="PHOTOS">
	<g>
		<defs>
			<rect id="SVGID_1_" y="117.791" width="1920" height="850.784"/>
		</defs>
		<clipPath id="SVGID_00000114755083361411329640000000260291496922165674_">
			<use xlink:href="#SVGID_1_"  style="overflow:visible;"/>
		</clipPath>
		
			<rect x="-1.061" y="117.791" style="opacity:0.85;clip-path:url(#SVGID_00000114755083361411329640000000260291496922165674_);fill:#0A011F;" width="1922.122" height="850.784"/>
	</g>
	<g id="BACKGROUND">
	</g>
</g>
<g id="OBJECTS">
	<g>
		<defs>
			<rect id="SVGID_00000065772361023983147670000014828481905725382798_" y="117.791" width="1920" height="850.784"/>
		</defs>
		<clipPath id="SVGID_00000107557081819546812790000013988381805453842877_">
			<use xlink:href="#SVGID_00000065772361023983147670000014828481905725382798_"  style="overflow:visible;"/>
		</clipPath>
		<g style="clip-path:url(#SVGID_00000107557081819546812790000013988381805453842877_);">
			
				<linearGradient id="SVGID_00000025419316896581318610000009872622845833547402_" gradientUnits="userSpaceOnUse" x1="-482.0276" y1="3.3453" x2="-8.1956" y2="3.3453" gradientTransform="matrix(0 1 -1 0 401.8533 315.5825)">
				<stop  offset="0" style="stop-color:#58D0FF"/>
				<stop  offset="0.9972" style="stop-color:#5BF296"/>
			</linearGradient>
			<path style="fill:url(#SVGID_00000025419316896581318610000009872622845833547402_);" d="M121.649,128.054l153.783,153.783
				c34.065,34.065,89.296,34.065,123.362,0l0,0c34.065-34.065,34.065-89.297,0-123.362l-24.27-24.27
				c-20.025-20.024-20.025-52.49,0-72.515h0c20.024-20.025,52.49-20.025,72.515,0l104.164,104.164
				c31.638,31.638,79.487,28.237,106.333-7.557l0,0c26.845-35.794,22.924-90.965-8.713-122.603l-202.14-202.14L263.59-4.994
				L121.649,128.054z"/>
			
				<linearGradient id="SVGID_00000114060577003096009910000009386205464440870839_" gradientUnits="userSpaceOnUse" x1="247.3219" y1="951.4952" x2="419.5627" y2="951.4952" gradientTransform="matrix(1 0 0 1 150.654 -604.9989)">
				<stop  offset="0" style="stop-color:#58D0FF"/>
				<stop  offset="0.9972" style="stop-color:#5BF296"/>
			</linearGradient>
			<path style="fill:url(#SVGID_00000114060577003096009910000009386205464440870839_);" d="M484.096,432.617L484.096,432.617
				c-47.563,0-86.121-38.557-86.121-86.12v0c0-47.563,38.557-86.12,86.12-86.12h0c47.563,0,86.12,38.557,86.12,86.12v0
				C570.217,394.059,531.659,432.617,484.096,432.617z"/>
		</g>
		<g style="clip-path:url(#SVGID_00000107557081819546812790000013988381805453842877_);">
			
				<linearGradient id="SVGID_00000106111728578351280950000005154512732349075848_" gradientUnits="userSpaceOnUse" x1="-2363.147" y1="1186.5359" x2="-2180.5952" y2="1186.5359" gradientTransform="matrix(0 1 -1 0 1132.8041 2799.6348)">
				<stop  offset="0" style="stop-color:#58D0FF"/>
				<stop  offset="0.9972" style="stop-color:#5BF296"/>
			</linearGradient>
			<path style="fill:url(#SVGID_00000106111728578351280950000005154512732349075848_);" d="M-214.395,577.479l33.377,33.377
				c10.911,10.911,28.602,10.911,39.513,0h0c10.911-10.911,10.911-28.602,0-39.513l-34.907-34.907
				c-6.552-6.552-8.166-16.565-4.006-24.844l0,0c6.578-13.09,24.038-15.905,34.396-5.546l73.133,73.133
				c9.829,9.829,25.766,9.829,35.595,0v0c9.829-9.829,9.829-25.766,0-35.595l-41.036-41.036c-6.74-6.74-7.538-17.395-1.877-25.064
				l0,0c6.998-9.48,20.791-10.513,29.123-2.181L72.579,598.965c8.228,8.227,21.697,7.783,29.365-0.968v0
				c6.985-7.972,6.588-19.995-0.906-27.49L-32.982,436.488h-181.413V577.479z"/>
			
				<linearGradient id="SVGID_00000040551345856779354060000014511572041784235397_" gradientUnits="userSpaceOnUse" x1="-2227.3689" y1="-304.9795" x2="-2172.1375" y2="-304.9795" gradientTransform="matrix(0.7071 0.7071 -0.7071 0.7071 1333.2826 2384.4021)">
				<stop  offset="0" style="stop-color:#58D0FF"/>
				<stop  offset="0.9972" style="stop-color:#5BF296"/>
			</linearGradient>
			<path style="fill:url(#SVGID_00000040551345856779354060000014511572041784235397_);" d="M-26.039,632.833L-26.039,632.833
				c-10.784-10.784-10.784-28.27,0-39.054l0,0c10.785-10.785,28.27-10.785,39.054,0l0,0c10.785,10.784,10.785,28.27,0,39.054l0,0
				C2.231,643.617-15.254,643.617-26.039,632.833z"/>
			
				<linearGradient id="SVGID_00000087382268726530597330000006569325420593558953_" gradientUnits="userSpaceOnUse" x1="-1874.3446" y1="1165.7766" x2="-1829.01" y2="1165.7766" gradientTransform="matrix(0 1 -1 0 1290.2961 2478.8875)">
				<stop  offset="0" style="stop-color:#58D0FF"/>
				<stop  offset="0.9972" style="stop-color:#5BF296"/>
			</linearGradient>
			<path style="fill:url(#SVGID_00000087382268726530597330000006569325420593558953_);" d="M101.852,627.21L101.852,627.21
				c0-12.519,10.148-22.667,22.667-22.667l0,0c12.519,0,22.667,10.148,22.667,22.667l0,0c0,12.519-10.148,22.667-22.667,22.667l0,0
				C112.001,649.878,101.852,639.729,101.852,627.21z"/>
		</g>
		
			<linearGradient id="SVGID_00000172442161341960966950000010198000981281065128_" gradientUnits="userSpaceOnUse" x1="-422.6466" y1="1389.7997" x2="355.4388" y2="1389.7997" gradientTransform="matrix(1 0 0 -1 0 1733.4821)">
			<stop  offset="0" style="stop-color:#FD80FF"/>
			<stop  offset="0.9972" style="stop-color:#F2D45B"/>
		</linearGradient>
		
			<path style="clip-path:url(#SVGID_00000107557081819546812790000013988381805453842877_);fill:url(#SVGID_00000172442161341960966950000010198000981281065128_);" d="
			M92.769-9.127c-9.021,19.803-6.016,44.434,11.051,61.501L290.047,238.6c25.029,25.029,25.029,65.609,0,90.639l0,0
			c-25.029,25.029-65.609,25.029-90.639,0L94.913,224.745c-17.162-17.162-44.295-19.195-63.823-4.781
			c-24.141,17.819-26.772,52.942-5.555,74.158L340.43,609.017c20.951,20.95,19.819,55.25-2.466,74.775l0,0
			c-20.3,17.786-50.916,16.776-70-2.308l-690.61-690.61H92.769z"/>
		
			<linearGradient id="SVGID_00000003072499682276804840000005042320328488444316_" gradientUnits="userSpaceOnUse" x1="1044.9828" y1="-769.4551" x2="1523.1486" y2="-769.4551" gradientTransform="matrix(-1 0 0 1 1274.0483 1620.5337)">
			<stop  offset="0" style="stop-color:#58D0FF"/>
			<stop  offset="0.9972" style="stop-color:#5BF296"/>
		</linearGradient>
		
			<path style="clip-path:url(#SVGID_00000107557081819546812790000013988381805453842877_);fill:none;stroke:url(#SVGID_00000003072499682276804840000005042320328488444316_);stroke-width:6.3032;stroke-miterlimit:10;" d="
			M-245.803,261.324l450.878,450.878c27.785,27.784,27.785,72.832,0,100.616l0,0c-27.785,27.784-72.832,27.784-100.617,0
			l-88.886-88.886c-16.683-16.683-42.181-20.795-63.263-10.201l0,0c-33.332,16.75-40.501,61.21-14.123,87.587l186.226,186.226
			c25.029,25.029,25.029,65.609,0,90.639l0,0c-25.029,25.029-65.609,25.029-90.639,0L-70.721,973.689
			c-17.162-17.162-44.295-19.195-63.823-4.781l0,0c-24.141,17.819-26.772,52.942-5.555,74.158l314.895,314.895
			c20.951,20.951,19.819,55.25-2.466,74.775l0,0c-20.3,17.786-50.916,16.776-70.001-2.308l-341.267-341.267V627.21L-245.803,261.324
			z"/>
	</g>
</g>
<g id="TEXTS">
	<text transform="matrix(1 0 0 1 1231.2545 461.5784)"><tspan x="0" y="0" style="fill:#FFABA6; font-family:'BakbakOne-Regular'; font-size:118.9838px; letter-spacing:-2;">DO IT</tspan><tspan x="0" y="99.421" style="fill:#FFABA6; font-family:'BakbakOne-Regular'; font-size:118.9838px; letter-spacing:-2;">FOR YOU</tspan></text>
	<g>
		
			<text transform="matrix(1 0 0 1 1248.0533 299.0335)" style="fill:#A6FFE2; font-family:'BakbakOne-Regular'; font-size:22.4091px; letter-spacing:5;">LET’S CHANGE YOUR LIFE</text>
	</g>
	<rect x="1231.256" y="599.884" style="fill:none;" width="428.303" height="146.392"/>
	<text transform="matrix(1 0 0 1 1231.2555 617.1815)"><tspan x="0" y="0" style="fill:#FFFFFF; font-family:'Montserrat-Regular'; font-size:23.3134px;">Lorem ipsum dolor sit amet, </tspan><tspan x="0" y="34.415" style="fill:#FFFFFF; font-family:'Montserrat-Regular'; font-size:23.3134px;">consectetuer adipiscing elit, sed diam </tspan><tspan x="0" y="68.829" style="fill:#FFFFFF; font-family:'Montserrat-Regular'; font-size:23.3134px;">nonummy nibh euismod tincidunt ut </tspan><tspan x="0" y="103.243" style="fill:#FFFFFF; font-family:'Montserrat-Regular'; font-size:23.3134px;">laoreet dolore</tspan></text>
	
		<line style="fill:none;stroke:#FFFFFF;stroke-width:1.2386;stroke-miterlimit:10;" x1="1231.256" y1="338.469" x2="1589.427" y2="338.469"/>
	
		<linearGradient id="SVGID_00000181770579750278143190000011321547854796756923_" gradientUnits="userSpaceOnUse" x1="1231.2559" y1="803.2109" x2="1619.0481" y2="803.2109">
		<stop  offset="0" style="stop-color:#58D0FF"/>
		<stop  offset="0.9972" style="stop-color:#5BF296"/>
	</linearGradient>
	<path style="fill:url(#SVGID_00000181770579750278143190000011321547854796756923_);" d="M1582.369,839.89h-314.434
		c-20.257,0-36.679-16.422-36.679-36.679l0,0c0-20.257,16.422-36.679,36.679-36.679h314.434c20.257,0,36.679,16.422,36.679,36.679
		l0,0C1619.048,823.468,1602.626,839.89,1582.369,839.89z"/>
	
		<text transform="matrix(1 0 0 1 1296.9473 818.0771)" style="fill:#FFFFFF; font-family:'BakbakOne-Regular'; font-size:41.3989px;">LEARN MORE</text>
	
		<linearGradient id="SVGID_00000051349373839991725810000014316992107419534011_" gradientUnits="userSpaceOnUse" x1="0" y1="58.8954" x2="1920" y2="58.8954">
		<stop  offset="0.0056" style="stop-color:#0A011F"/>
		<stop  offset="1" style="stop-color:#190747"/>
	</linearGradient>
	<rect style="fill:url(#SVGID_00000051349373839991725810000014316992107419534011_);" width="1920" height="117.791"/>
	<g>
		<g>
			<text transform="matrix(1 0 0 1 192.1475 55.769)"><tspan x="0" y="0" style="fill:#FFFFFF; font-family:'Montserrat-Regular'; font-size:16.5335px;">ONLINE</tspan><tspan x="0" y="13.815" style="fill:#FFFFFF; font-family:'Montserrat-Black'; font-size:16.5335px;">WORKOUT</tspan><tspan x="0" y="27.63" style="fill:#FFFFFF; font-family:'Montserrat-Black'; font-size:16.5335px;">.COM</tspan></text>
			
				<line style="fill:none;stroke:#FFFFFF;stroke-width:0.4973;stroke-miterlimit:10;" x1="250.365" y1="79.744" x2="290.191" y2="79.744"/>
		</g>
		<g>
			
				<linearGradient id="SVGID_00000015336936416507249190000004087981058503612038_" gradientUnits="userSpaceOnUse" x1="164.8498" y1="164.9841" x2="223.037" y2="164.9841" gradientTransform="matrix(0.6047 -0.7964 0.7964 0.6047 -175.977 117.4487)">
				<stop  offset="0" style="stop-color:#587FFF"/>
				<stop  offset="0.9972" style="stop-color:#5BF2E1"/>
			</linearGradient>
			<path style="fill:url(#SVGID_00000015336936416507249190000004087981058503612038_);" d="M88.04,56.673
				c1.795,5.438,0.469,11.78-4.401,16.106c-4.397,3.906-10.92,4.846-16.232,2.323c-8.998-4.274-11.368-15.348-5.689-22.828
				c3.147-4.145,8.019-6.196,12.851-5.925c2.618,0.146,5.141-0.984,6.727-3.072l0,0c3.753-4.943,0.572-12.204-5.621-12.599
				c-10.656-0.68-21.443,4.181-27.816,13.991c-8.412,12.948-5.645,30.695,6.282,40.501c13.582,11.166,33.588,8.726,44.122-5.147
				c6.519-8.586,7.83-19.48,4.47-28.929c-2.057-5.785-9.873-6.781-13.585-1.892l0,0C87.524,51.34,87.199,54.125,88.04,56.673z"/>
			
				<linearGradient id="SVGID_00000152985086065224754160000005677964249838725532_" gradientUnits="userSpaceOnUse" x1="44.7084" y1="408.6627" x2="102.891" y2="408.6627" gradientTransform="matrix(-0.8784 -0.478 0.478 -0.8784 -55.3117 456.4932)">
				<stop  offset="0" style="stop-color:#FF80C6"/>
				<stop  offset="0.9972" style="stop-color:#F2E85B"/>
			</linearGradient>
			<path style="fill:url(#SVGID_00000152985086065224754160000005677964249838725532_);" d="M66.879,47.993
				c5.106-2.593,11.576-2.236,16.585,1.927c4.523,3.759,6.434,10.066,4.74,15.698c-2.871,9.538-13.462,13.548-21.712,9.06
				c-4.571-2.488-7.332-6.995-7.792-11.813c-0.249-2.611-1.746-4.935-4.05-6.188l0,0c-5.451-2.966-12.151,1.271-11.61,7.453
				c0.932,10.637,7.361,20.569,18.018,25.393c14.066,6.368,31.195,0.961,39.094-12.306c8.995-15.108,3.571-34.519-11.729-42.844
				c-9.47-5.153-20.437-4.809-29.272-0.065c-5.409,2.904-5.218,10.781,0.175,13.715l0,0C61.683,49.305,64.485,49.208,66.879,47.993z
				"/>
			
				<linearGradient id="SVGID_00000097498677975005243970000014794135875225284019_" gradientUnits="userSpaceOnUse" x1="113.8306" y1="-3.69" x2="125.971" y2="111.1754">
				<stop  offset="0" style="stop-color:#587FFF"/>
				<stop  offset="0.9972" style="stop-color:#5BF2E1"/>
			</linearGradient>
			<path style="fill:url(#SVGID_00000097498677975005243970000014794135875225284019_);" d="M127.27,92.201L127.27,92.201
				c-3.66,0-6.879-2.417-7.901-5.931l-13.119-45.13c-1.53-5.264,2.418-10.525,7.901-10.525h0c3.659,0,6.879,2.417,7.901,5.931
				l13.119,45.13C136.701,86.94,132.753,92.201,127.27,92.201z"/>
			
				<linearGradient id="SVGID_00000106106261371684926940000001859013342099724734_" gradientUnits="userSpaceOnUse" x1="135.4872" y1="39.6345" x2="194.3206" y2="153.0988">
				<stop  offset="0" style="stop-color:#587FFF"/>
				<stop  offset="0.9972" style="stop-color:#5BF2E1"/>
			</linearGradient>
			<path style="fill:url(#SVGID_00000106106261371684926940000001859013342099724734_);" d="M153.337,92.201L153.337,92.201
				c-3.659,0-6.879-2.417-7.901-5.931l-13.119-45.13c-1.53-5.264,2.419-10.525,7.901-10.525l0,0c3.66,0,6.879,2.417,7.901,5.931
				l13.119,45.13C162.768,86.94,158.819,92.201,153.337,92.201z"/>
			
				<linearGradient id="SVGID_00000015313089318583016050000003259376665350695060_" gradientUnits="userSpaceOnUse" x1="148.1498" y1="96.124" x2="170.0217" y2="30.8668">
				<stop  offset="0" style="stop-color:#FF80C6"/>
				<stop  offset="0.9972" style="stop-color:#F2E85B"/>
			</linearGradient>
			<path style="fill:url(#SVGID_00000015313089318583016050000003259376665350695060_);" d="M153.226,92.201L153.226,92.201
				c3.66,0,6.879-2.417,7.901-5.931l13.119-45.13c1.53-5.264-2.419-10.525-7.901-10.525h0c-3.66,0-6.879,2.417-7.901,5.931
				l-13.119,45.13C143.795,86.94,147.744,92.201,153.226,92.201z"/>
			
				<linearGradient id="SVGID_00000048486712591976641670000014892629382736140928_" gradientUnits="userSpaceOnUse" x1="122.2636" y1="90.5842" x2="151.3064" y2="16.7219">
				<stop  offset="0" style="stop-color:#FF80C6"/>
				<stop  offset="0.9972" style="stop-color:#F2E85B"/>
			</linearGradient>
			<path style="fill:url(#SVGID_00000048486712591976641670000014892629382736140928_);" d="M127.176,92.201L127.176,92.201
				c3.659,0,6.879-2.417,7.901-5.931l13.119-45.13c1.53-5.264-2.419-10.525-7.901-10.525l0,0c-3.66,0-6.879,2.417-7.901,5.931
				l-13.119,45.13C117.745,86.94,121.694,92.201,127.176,92.201z"/>
		</g>
	</g>
	
		<text transform="matrix(1 0 0 1 1143.1953 77.8701)" style="fill:#FFFFFF; font-family:'BakbakOne-Regular'; font-size:28.9867px;">SERVICES</text>
	
		<text transform="matrix(1 0 0 1 1387.5635 77.8701)" style="fill:#FFFFFF; font-family:'BakbakOne-Regular'; font-size:28.9867px;">SCHEDULE</text>
	
		<text transform="matrix(1 0 0 1 1663.1074 77.8701)" style="fill:#FFFFFF; font-family:'BakbakOne-Regular'; font-size:28.9867px;">ABOUT</text>
	
		<line style="fill:none;stroke:#FFFFFF;stroke-width:1.1677;stroke-miterlimit:10;" x1="1322.142" y1="59.814" x2="1322.142" y2="77.87"/>
	
		<line style="fill:none;stroke:#FFFFFF;stroke-width:1.1677;stroke-miterlimit:10;" x1="1586.05" y1="59.814" x2="1586.05" y2="77.87"/>
	<g>
		
			<line style="fill:none;stroke:#FFFFFF;stroke-width:1.8855;stroke-linecap:round;stroke-linejoin:round;stroke-miterlimit:10;" x1="1836.476" y1="56.867" x2="1864.727" y2="56.867"/>
		
			<line style="fill:none;stroke:#FFFFFF;stroke-width:1.8855;stroke-linecap:round;stroke-linejoin:round;stroke-miterlimit:10;" x1="1836.476" y1="66.65" x2="1864.727" y2="66.65"/>
		
			<line style="fill:none;stroke:#FFFFFF;stroke-width:1.8855;stroke-linecap:round;stroke-linejoin:round;stroke-miterlimit:10;" x1="1836.476" y1="76.432" x2="1864.727" y2="76.432"/>
	</g>
	<g>
		<text transform="matrix(1 0 0 1 407.084 1032.7402)"><tspan x="0" y="0" style="font-family:'Montserrat-Regular'; font-size:26.1607px;">Terms &amp; Conditions . </tspan><tspan x="263.591" y="0" style="font-family:'Montserrat-Bold'; font-size:26.1607px;">2021</tspan></text>
		<g>
			<g>
				<g>
					
						<linearGradient id="SVGID_00000013884546249794148970000013935357606688986021_" gradientUnits="userSpaceOnUse" x1="60.7424" y1="1026.2423" x2="77.9263" y2="1026.2423">
						<stop  offset="0.0056" style="stop-color:#0A011F"/>
						<stop  offset="1" style="stop-color:#190747"/>
					</linearGradient>
					<path style="fill-rule:evenodd;clip-rule:evenodd;fill:url(#SVGID_00000013884546249794148970000013935357606688986021_);" d="
						M73.284,1014.155h4.642l0,0v-6.408h-7.201c-3.422,0-6.196,2.774-6.196,6.196v5.745h-3.786v6.408h3.786v0.291v18.349h7.573
						v-18.64h5.243l0.542-6.408h-5.784v-4.351C72.101,1014.685,72.631,1014.155,73.284,1014.155z"/>
				</g>
				<g>
					
						<linearGradient id="SVGID_00000157295706863428565120000003787718732514047406_" gradientUnits="userSpaceOnUse" x1="208.4904" y1="1026.2423" x2="248.9812" y2="1026.2423">
						<stop  offset="0.0056" style="stop-color:#0A011F"/>
						<stop  offset="1" style="stop-color:#190747"/>
					</linearGradient>
					<path style="fill:url(#SVGID_00000157295706863428565120000003787718732514047406_);" d="M238.318,1012.071h-19.165
						c-5.889,0-10.663,4.774-10.663,10.663v7.017c0,5.889,4.774,10.663,10.663,10.663h19.164c5.889,0,10.663-4.774,10.663-10.663
						v-7.017C248.981,1016.845,244.207,1012.071,238.318,1012.071z M234.557,1026.782l-9.118,5
						c-0.396,0.215-0.753-0.073-0.753-0.523v-10.265c0-0.456,0.368-0.743,0.764-0.517l9.18,5.264
						C235.036,1025.973,234.967,1026.56,234.557,1026.782z"/>
				</g>
				<g>
					<g>
						
							<linearGradient id="SVGID_00000174573233956142602380000017348403193572072883_" gradientUnits="userSpaceOnUse" x1="292.8456" y1="1026.2423" x2="324.027" y2="1026.2423">
							<stop  offset="0.0056" style="stop-color:#0A011F"/>
							<stop  offset="1" style="stop-color:#190747"/>
						</linearGradient>
						<path style="fill:url(#SVGID_00000174573233956142602380000017348403193572072883_);" d="M295.113,1010.067l-2.268,6.484
							v21.827h7.866v4.039h4.89l3.952-4.039h5.827l8.646-8.717v-19.595H295.113z M320.98,1028.953l-4.769,4.677h-7.979l-3.693,3.827
							v-3.827h-6.945v-20.764h23.386V1028.953z"/>
						
							<linearGradient id="SVGID_00000023259858947627603370000014385043909838851516_" gradientUnits="userSpaceOnUse" x1="313.5388" y1="1023.1419" x2="316.1608" y2="1023.1419">
							<stop  offset="0.0056" style="stop-color:#0A011F"/>
							<stop  offset="1" style="stop-color:#190747"/>
						</linearGradient>
						
							<rect x="313.539" y="1018.819" style="fill:url(#SVGID_00000023259858947627603370000014385043909838851516_);" width="2.622" height="8.646"/>
						
							<linearGradient id="SVGID_00000178904362007120216250000009135364939436065977_" gradientUnits="userSpaceOnUse" x1="305.8142" y1="1023.1419" x2="308.4363" y2="1023.1419">
							<stop  offset="0.0056" style="stop-color:#0A011F"/>
							<stop  offset="1" style="stop-color:#190747"/>
						</linearGradient>
						
							<rect x="305.814" y="1018.819" style="fill:url(#SVGID_00000178904362007120216250000009135364939436065977_);" width="2.622" height="8.646"/>
					</g>
				</g>
				<g>
					<g>
						
							<linearGradient id="SVGID_00000136409904198972329650000015174599314890239894_" gradientUnits="userSpaceOnUse" x1="156.6606" y1="1016.6447" x2="161.0496" y2="1016.6447">
							<stop  offset="0.0056" style="stop-color:#0A011F"/>
							<stop  offset="1" style="stop-color:#190747"/>
						</linearGradient>
						<path style="fill:url(#SVGID_00000136409904198972329650000015174599314890239894_);" d="M158.855,1014.45
							c-1.212,0-2.195,0.983-2.195,2.195c0,1.212,0.983,2.194,2.195,2.194c1.212,0,2.194-0.982,2.194-2.194
							C161.05,1015.433,160.067,1014.45,158.855,1014.45z"/>
						
							<linearGradient id="SVGID_00000017514363553415471580000006062300150599176351_" gradientUnits="userSpaceOnUse" x1="139.3748" y1="1026.2423" x2="158.8218" y2="1026.2423">
							<stop  offset="0.0056" style="stop-color:#0A011F"/>
							<stop  offset="1" style="stop-color:#190747"/>
						</linearGradient>
						<path style="fill:url(#SVGID_00000017514363553415471580000006062300150599176351_);" d="M149.099,1016.519
							c-5.361,0-9.724,4.362-9.724,9.723c0,5.361,4.362,9.723,9.724,9.723c5.361,0,9.723-4.362,9.723-9.723
							C158.822,1020.881,154.46,1016.519,149.099,1016.519z M149.099,1032.471c-3.434,0-6.229-2.794-6.229-6.229
							c0-3.435,2.795-6.228,6.229-6.228c3.434,0,6.228,2.794,6.228,6.228C155.327,1029.677,152.533,1032.471,149.099,1032.471z"/>
						
							<linearGradient id="SVGID_00000108274766595884669490000002972355160786965416_" gradientUnits="userSpaceOnUse" x1="130.3703" y1="1026.2423" x2="167.7" y2="1026.2423">
							<stop  offset="0.0056" style="stop-color:#0A011F"/>
							<stop  offset="1" style="stop-color:#190747"/>
						</linearGradient>
						<path style="fill:url(#SVGID_00000108274766595884669490000002972355160786965416_);" d="M156.455,1007.578h-14.84
							c-6.21,0-11.245,5.034-11.245,11.244v14.842c0,6.21,5.034,11.244,11.245,11.244h14.84c6.21,0,11.245-5.034,11.245-11.244
							v-14.842C167.7,1012.612,162.666,1007.578,156.455,1007.578z M164.178,1033.663c0,4.265-3.458,7.723-7.723,7.723h-14.84
							c-4.265,0-7.723-3.457-7.723-7.723v-14.842c0-4.265,3.458-7.722,7.723-7.722h14.84c4.265,0,7.723,3.457,7.723,7.722V1033.663z
							"/>
					</g>
				</g>
			</g>
		</g>
	</g>
</g>
</svg>
